<svg xmlns="http://www.w3.org/2000/svg" viewBox="0 0 1280 800" width="1280" height="800">
  <defs>
    <linearGradient id="bg" x1="0%" y1="0%" x2="100%" y2="100%">
      <stop offset="0%" stop-color="#0a0e27"/>
      <stop offset="100%" stop-color="#1a1a3e"/>
    </linearGradient>
    <linearGradient id="accent" x1="0%" y1="0%" x2="100%" y2="0%">
      <stop offset="0%" stop-color="#00e5ff"/>
      <stop offset="100%" stop-color="#7c4dff"/>
    </linearGradient>
  </defs>

  <!-- App window background -->
  <rect width="1280" height="800" fill="url(#bg)"/>

  <!-- Browser chrome -->
  <rect x="0" y="0" width="1280" height="64" fill="#15182d"/>
  <circle cx="32" cy="32" r="6" fill="#ff5f57"/>
  <circle cx="56" cy="32" r="6" fill="#febc2e"/>
  <circle cx="80" cy="32" r="6" fill="#28c840"/>
  <rect x="120" y="20" width="800" height="24" rx="12" fill="#0a0e27"/>
  <text x="140" y="36" font-family="ui-monospace, monospace" font-size="12" fill="#7c4dff">https://sage-router.local/dashboard</text>

  <!-- Top bar -->
  <rect x="0" y="64" width="1280" height="60" fill="#0e1224" stroke="#2d1b69" stroke-width="1"/>
  <text x="32" y="100" font-family="ui-sans-serif, system-ui" font-size="22" font-weight="700" fill="#ffffff">Sage Router</text>
  <text x="220" y="100" font-family="ui-sans-serif, system-ui" font-size="14" fill="#7c4dff">v1.0.0</text>

  <!-- Health badge top right -->
  <rect x="1080" y="78" width="160" height="32" rx="16" fill="#0a3a1f" stroke="#00ffa3" stroke-width="1"/>
  <circle cx="1100" cy="94" r="5" fill="#00ffa3"/>
  <text x="1115" y="100" font-family="ui-sans-serif, system-ui" font-size="13" font-weight="600" fill="#00ffa3">All providers healthy</text>

  <!-- Main grid -->
  <!-- Stat cards -->
  <g font-family="ui-sans-serif, system-ui">
    <rect x="32" y="148" width="280" height="120" rx="12" fill="#15182d" stroke="#2d1b69" stroke-width="1"/>
    <text x="56" y="184" font-size="13" fill="#8888aa">Total requests (24h)</text>
    <text x="56" y="226" font-size="32" font-weight="700" fill="#ffffff">12,847</text>
    <text x="56" y="252" font-size="12" fill="#00ffa3">+18% vs yesterday</text>

    <rect x="328" y="148" width="280" height="120" rx="12" fill="#15182d" stroke="#2d1b69" stroke-width="1"/>
    <text x="352" y="184" font-size="13" fill="#8888aa">Tokens served</text>
    <text x="352" y="226" font-size="32" font-weight="700" fill="#ffffff">47.2M</text>
    <text x="352" y="252" font-size="12" fill="#00e5ff">$327.40 routed</text>

    <rect x="624" y="148" width="280" height="120" rx="12" fill="#15182d" stroke="#2d1b69" stroke-width="1"/>
    <text x="648" y="184" font-size="13" fill="#8888aa">Active providers</text>
    <text x="648" y="226" font-size="32" font-weight="700" fill="#ffffff">10</text>
    <text x="648" y="252" font-size="12" fill="#ff4dff">3 frontier, 7 local</text>

    <rect x="920" y="148" width="328" height="120" rx="12" fill="#15182d" stroke="#2d1b69" stroke-width="1"/>
    <text x="944" y="184" font-size="13" fill="#8888aa">OpenClaw Codex OAuth</text>
    <text x="944" y="226" font-size="24" font-weight="700" fill="#00ffa3">Connected</text>
    <text x="944" y="252" font-size="12" fill="#8888aa">earlvanze@gmail.com · expires 23h</text>
  </g>

  <!-- Provider list -->
  <g font-family="ui-sans-serif, system-ui">
    <rect x="32" y="288" width="780" height="480" rx="12" fill="#15182d" stroke="#2d1b69" stroke-width="1"/>
    <text x="56" y="324" font-size="16" font-weight="600" fill="#ffffff">Discovered providers</text>
    <text x="56" y="346" font-size="12" fill="#8888aa">Auto-discovered from OpenClaw auth-profiles.json</text>

    <!-- provider rows -->
    <g transform="translate(56, 370)">
      <circle cx="8" cy="8" r="5" fill="#00ffa3"/>
      <text x="24" y="13" font-size="14" font-weight="500" fill="#ffffff">openai-codex</text>
      <text x="200" y="13" font-size="12" fill="#8888aa">openai-codex-responses</text>
      <text x="500" y="13" font-size="12" fill="#00e5ff">gpt-5.5, gpt-5.4, gpt-5.3-codex, gpt-5.2-codex, gpt-5.1-codex-max</text>
    </g>
    <line x1="56" y1="392" x2="788" y2="392" stroke="#2d1b69" stroke-width="1"/>

    <g transform="translate(56, 410)">
      <circle cx="8" cy="8" r="5" fill="#00ffa3"/>
      <text x="24" y="13" font-size="14" font-weight="500" fill="#ffffff">openai</text>
      <text x="200" y="13" font-size="12" fill="#8888aa">openai-completions</text>
      <text x="500" y="13" font-size="12" fill="#00e5ff">gpt-5.5, gpt-5.4, gpt-5.4-pro, gpt-5.4-mini</text>
    </g>
    <line x1="56" y1="432" x2="788" y2="432" stroke="#2d1b69" stroke-width="1"/>

    <g transform="translate(56, 450)">
      <circle cx="8" cy="8" r="5" fill="#00ffa3"/>
      <text x="24" y="13" font-size="14" font-weight="500" fill="#ffffff">anthropic</text>
      <text x="200" y="13" font-size="12" fill="#8888aa">anthropic-messages · Dario</text>
      <text x="500" y="13" font-size="12" fill="#00e5ff">claude-sonnet-4.5, claude-haiku-4.5, claude-opus-4.5</text>
    </g>
    <line x1="56" y1="472" x2="788" y2="472" stroke="#2d1b69" stroke-width="1"/>

    <g transform="translate(56, 490)">
      <circle cx="8" cy="8" r="5" fill="#00ffa3"/>
      <text x="24" y="13" font-size="14" font-weight="500" fill="#ffffff">google</text>
      <text x="200" y="13" font-size="12" fill="#8888aa">google-generative-language</text>
      <text x="500" y="13" font-size="12" fill="#00e5ff">gemini-3-flash-preview, gemini-2.5-pro, gemini-2.5-flash</text>
    </g>
    <line x1="56" y1="512" x2="788" y2="512" stroke="#2d1b69" stroke-width="1"/>

    <g transform="translate(56, 530)">
      <circle cx="8" cy="8" r="5" fill="#00ffa3"/>
      <text x="24" y="13" font-size="14" font-weight="500" fill="#ffffff">openrouter</text>
      <text x="200" y="13" font-size="12" fill="#8888aa">openai-completions</text>
      <text x="500" y="13" font-size="12" fill="#00e5ff">342 models · free tier preferred</text>
    </g>
    <line x1="56" y1="552" x2="788" y2="552" stroke="#2d1b69" stroke-width="1"/>

    <g transform="translate(56, 570)">
      <circle cx="8" cy="8" r="5" fill="#00ffa3"/>
      <text x="24" y="13" font-size="14" font-weight="500" fill="#ffffff">ollama-cloud</text>
      <text x="200" y="13" font-size="12" fill="#8888aa">ollama</text>
      <text x="500" y="13" font-size="12" fill="#00e5ff">21 cloud models · kimi-k2.5, qwen3.5, cogito-2.1, devstral-2</text>
    </g>
    <line x1="56" y1="592" x2="788" y2="592" stroke="#2d1b69" stroke-width="1"/>

    <g transform="translate(56, 610)">
      <circle cx="8" cy="8" r="5" fill="#00ffa3"/>
      <text x="24" y="13" font-size="14" font-weight="500" fill="#ffffff">darkbloom</text>
      <text x="200" y="13" font-size="12" fill="#8888aa">openai-completions</text>
      <text x="500" y="13" font-size="12" fill="#00e5ff">darkbloom-2, darkbloom-1</text>
    </g>
    <line x1="56" y1="632" x2="788" y2="632" stroke="#2d1b69" stroke-width="1"/>

    <g transform="translate(56, 650)">
      <circle cx="8" cy="8" r="5" fill="#00ffa3"/>
      <text x="24" y="13" font-size="14" font-weight="500" fill="#ffffff">nvidia-nim</text>
      <text x="200" y="13" font-size="12" fill="#8888aa">openai-completions</text>
      <text x="500" y="13" font-size="12" fill="#00e5ff">nemotron, llama-3.1-nemotron, mistral-large-2</text>
    </g>
    <line x1="56" y1="672" x2="788" y2="672" stroke="#2d1b69" stroke-width="1"/>

    <g transform="translate(56, 690)">
      <circle cx="8" cy="8" r="5" fill="#7c4dff"/>
      <text x="24" y="13" font-size="14" font-weight="500" fill="#ffffff">github-copilot</text>
      <text x="200" y="13" font-size="12" fill="#8888aa">openclaw-gateway</text>
      <text x="500" y="13" font-size="12" fill="#00e5ff">via OpenClaw gateway bridge</text>
    </g>
  </g>

  <!-- Right side: routing visualizer -->
  <g font-family="ui-sans-serif, system-ui">
    <rect x="828" y="288" width="420" height="480" rx="12" fill="#15182d" stroke="#2d1b69" stroke-width="1"/>
    <text x="852" y="324" font-size="16" font-weight="600" fill="#ffffff">Live routing</text>
    <text x="852" y="346" font-size="12" fill="#8888aa">Last 100 requests · intent → provider</text>

    <!-- Center hub -->
    <circle cx="1038" cy="560" r="48" fill="url(#accent)" opacity="0.9"/>
    <text x="1038" y="566" font-size="20" font-weight="700" fill="#ffffff" text-anchor="middle">S</text>

    <!-- Surrounding nodes -->
    <circle cx="900" cy="420" r="22" fill="#0a0e27" stroke="#00e5ff" stroke-width="2"/>
    <text x="900" y="425" font-size="9" font-weight="600" fill="#00e5ff" text-anchor="middle">code</text>
    <line x1="918" y1="432" x2="1006" y2="540" stroke="#00e5ff" stroke-width="1" opacity="0.6"/>

    <circle cx="1180" cy="420" r="22" fill="#0a0e27" stroke="#7c4dff" stroke-width="2"/>
    <text x="1180" y="425" font-size="9" font-weight="600" fill="#7c4dff" text-anchor="middle">frontier</text>
    <line x1="1158" y1="432" x2="1070" y2="540" stroke="#7c4dff" stroke-width="1" opacity="0.6"/>

    <circle cx="900" cy="700" r="22" fill="#0a0e27" stroke="#ff4dff" stroke-width="2"/>
    <text x="900" y="705" font-size="9" font-weight="600" fill="#ff4dff" text-anchor="middle">eco</text>
    <line x1="918" y1="688" x2="1006" y2="580" stroke="#ff4dff" stroke-width="1" opacity="0.6"/>

    <circle cx="1180" cy="700" r="22" fill="#0a0e27" stroke="#00ffa3" stroke-width="2"/>
    <text x="1180" y="705" font-size="9" font-weight="600" fill="#00ffa3" text-anchor="middle">local</text>
    <line x1="1158" y1="688" x2="1070" y2="580" stroke="#00ffa3" stroke-width="1" opacity="0.6"/>

    <text x="900" y="395" font-size="9" fill="#8888aa" text-anchor="middle">38%</text>
    <text x="1180" y="395" font-size="9" fill="#8888aa" text-anchor="middle">27%</text>
    <text x="900" y="745" font-size="9" fill="#8888aa" text-anchor="middle">22%</text>
    <text x="1180" y="745" font-size="9" fill="#8888aa" text-anchor="middle">13%</text>
  </g>
</svg>
